<?xml version="1.0" standalone="no"?>
<!DOCTYPE svg PUBLIC "-//W3C//DTD SVG 1.1//EN" "http://www.w3.org/Graphics/SVG/1.1/DTD/svg11.dtd">
<svg version="1.1" id="svg2" width="1122.52001953125" height="793.7066650390625" viewBox="0 0 1122.52 793.70667" xmlns="http://www.w3.org/2000/svg" xmlns:svg="http://www.w3.org/2000/svg">
  <defs id="defs6"/>
  <g id="g10" transform="matrix(1.3333333,0,0,-1.3333333,0,793.70667)">
    <g id="g12" transform="translate(417.032,309.6913)">
      <path d="M 0,0 H -30.989 V -8.886 H 3.845 v -23.731 h -45.342 l 3.846,6.662 h 34.835 v 10.407 H -37.651 V 6.661 H 3.845 Z" style="fill:#70706f;fill-opacity:1;fill-rule:nonzero;stroke:none" id="path14"/>
    </g>
    <g id="g16" transform="translate(438.8967,308.9808)">
      <path d="M 0,0 -3.846,0.001 Z" style="fill:#70706f;fill-opacity:1;fill-rule:nonzero;stroke:none" id="path18"/>
    </g>
    <g id="g20" transform="translate(441.7119,308.981)">
      <path d="m 0,0 -6.661,0.001 v -28.472 -4.961 L 0,-21.894 -3.797,-28.471 0,-21.894 Z" style="fill:#70706f;fill-opacity:1;fill-rule:nonzero;stroke:none" id="path22"/>
    </g>
    <g id="g24" transform="translate(518.389,277.0819)">
      <path d="M 0,0 V 39.271 H 6.661 V 6.661 H 30.429 L 26.583,0 Z" style="fill:#70706f;fill-opacity:1;fill-rule:nonzero;stroke:none" id="path26"/>
    </g>
    <g id="g28" transform="translate(559.1455,277.0819)">
      <path d="M 0,0 V 39.271 H 33.264 L 29.417,32.609 H 6.661 V 23.723 H 22.188 L 18.342,17.062 H 6.661 V 6.661 H 33.264 L 29.407,0 Z" style="fill:#70706f;fill-opacity:1;fill-rule:nonzero;stroke:none" id="path30"/>
    </g>
    <g id="g32" transform="translate(504.2158,287.0942)">
      <path d="M 0,0 -3.797,-6.577" style="fill:#70706f;fill-opacity:1;fill-rule:nonzero;stroke:none" id="path34"/>
    </g>
    <g id="g36" transform="translate(483.3811,287.0942)">
      <path d="M 0,0 -3.797,-6.577" style="fill:#70706f;fill-opacity:1;fill-rule:nonzero;stroke:none" id="path38"/>
    </g>
    <g id="g40" transform="translate(455.8852,308.9881)">
      <path d="m 0,0 v -33.432 l 6.661,11.538 v 15.232 h 14.174 v -26.77 l 6.661,11.538 v 15.232 h 14.173 v -26.77 l 6.662,11.538 V 0 Z" style="fill:#70706f;fill-opacity:1;fill-rule:nonzero;stroke:none" id="path42"/>
    </g>
    <g id="g44" transform="translate(462.5465,287.0942)">
      <path d="M 0,0 -3.797,-6.577" style="fill:#70706f;fill-opacity:1;fill-rule:nonzero;stroke:none" id="path46"/>
    </g>
    <g id="g48" transform="translate(324.511,316.3528)">
      <path d="M 0,0 4.252,-7.365 H -4.252 Z" style="fill:#062d35;fill-opacity:1;fill-rule:nonzero;stroke:none" id="path50"/>
    </g>
    <g id="g52" transform="translate(348.6055,284.4394)">
      <path d="M 0,0 7.087,12.274 H -7.087 Z" style="fill:#062d35;fill-opacity:1;fill-rule:nonzero;stroke:none" id="path54"/>
    </g>
    <g id="g56" transform="translate(341.5189,257.4358)">
      <path d="M 0,0 11.339,-19.639 H -11.339 Z" style="fill:#062d35;fill-opacity:1;fill-rule:nonzero;stroke:none" id="path58"/>
    </g>
    <g id="g60" transform="translate(293.331,277.0747)">
      <path d="M 0,0 -4.252,7.365 H 4.252 Z" style="fill:#3b6429;fill-opacity:1;fill-rule:nonzero;stroke:none" id="path62"/>
    </g>
    <g id="g64" transform="translate(269.2365,308.9881)">
      <path d="M 0,0 -7.087,-12.274 H 7.087 Z" style="fill:#3b6429;fill-opacity:1;fill-rule:nonzero;stroke:none" id="path66"/>
    </g>
    <g id="g68" transform="translate(276.3231,335.9918)">
      <path d="M 0,0 -11.339,19.639 H 11.339 Z" style="fill:#3b6429;fill-opacity:1;fill-rule:nonzero;stroke:none" id="path70"/>
    </g>
    <g id="g72" transform="translate(304.6685,193.609)">
      <path d="m 0,0 h -36.85 l -18.426,31.913 18.426,31.914 h 51.023 l 15.591,27.003 -9.921,17.185 h -8.504 l -4.252,7.364 4.252,7.365 h 8.504 l -4.252,-7.365 H 43.937 L 51.024,103.105 36.855,103.112 59.528,63.827 48.189,44.188 36.85,63.827 Z" style="fill:#2c7a86;fill-opacity:1;fill-rule:nonzero;stroke:none" id="path74"/>
    </g>
    <g id="g76" transform="translate(301.8349,277.0747)">
      <path d="m 0,0 h -8.504 l 4.252,7.365 h -28.346 l -7.087,12.274 h 14.173 l -22.677,39.278 11.339,19.639 11.338,-19.639 36.851,63.827 h 36.85 L 66.614,90.83 48.189,58.917 H -2.835 L -18.425,31.913 -8.504,14.729 H 0 L 4.252,7.365 Z" style="fill:#d4ca06;fill-opacity:1;fill-rule:nonzero;stroke:none" id="path78"/>
    </g>
  </g>
</svg>